<?xml version="1.0" standalone="no"?>
<!DOCTYPE svg PUBLIC "-//W3C//DTD SVG 20010904//EN"
 "http://www.w3.org/TR/2001/REC-SVG-20010904/DTD/svg10.dtd">
<svg version="1.0" xmlns="http://www.w3.org/2000/svg"
 width="500.000000pt" height="500.000000pt" viewBox="0 0 500.000000 500.000000"
 preserveAspectRatio="xMidYMid meet">

<g transform="translate(0.000000,500.000000) scale(0.100000,-0.100000)"
fill="#000000" stroke="none">
<path d="M0 4431 c0 -505 1 -552 18 -580 9 -17 23 -31 30 -31 7 0 15 -7 18
-15 4 -8 12 -15 20 -15 8 0 11 -6 8 -15 -4 -9 0 -15 9 -15 8 0 21 -13 29 -30
7 -16 16 -30 20 -30 5 0 25 -16 47 -35 21 -19 44 -35 50 -35 7 0 9 -4 6 -10
-3 -5 6 -12 20 -16 14 -3 25 -12 25 -18 0 -7 11 -18 25 -24 14 -6 25 -17 25
-24 0 -7 13 -22 30 -33 16 -11 37 -34 47 -52 10 -18 21 -33 25 -33 12 0 138
-128 138 -139 0 -6 7 -8 15 -5 10 4 15 0 15 -15 0 -12 6 -21 14 -21 8 0 18 -9
21 -20 3 -11 13 -20 20 -20 8 0 21 -13 30 -30 9 -17 24 -30 35 -30 10 0 22 -9
25 -20 3 -11 11 -20 17 -20 6 0 9 -2 6 -5 -2 -3 81 -92 186 -199 105 -106 209
-213 232 -237 73 -78 103 -100 127 -94 13 4 92 7 175 8 l152 2 -1 -35 c0 -31
-1 -32 -9 -12 -8 19 -17 22 -65 22 l-55 0 0 -121 0 -122 35 -33 c19 -18 35
-35 35 -38 0 -9 51 -56 60 -56 5 0 22 -18 36 -40 15 -22 33 -40 41 -40 8 0 12
-4 9 -9 -3 -4 11 -24 32 -44 82 -77 124 -126 117 -136 -3 -6 1 -11 9 -11 8 0
18 -9 21 -20 12 -36 20 -21 17 30 -2 27 -8 50 -13 50 -5 0 -2 11 7 25 18 28
34 33 34 10 0 -8 7 -15 15 -15 8 0 15 -4 15 -10 0 -5 -7 -10 -15 -10 -11 0
-15 -11 -15 -40 0 -29 4 -40 15 -40 22 0 18 -21 -4 -27 -13 -3 -18 -10 -13
-21 8 -23 28 -42 36 -35 3 3 10 -5 15 -19 9 -25 41 -57 41 -42 0 5 5 1 11 -8
5 -10 17 -18 24 -18 9 0 15 -10 15 -26 0 -18 4 -24 14 -21 15 6 35 -15 53 -55
7 -15 24 -34 38 -44 14 -9 25 -23 25 -31 0 -8 4 -11 10 -8 5 3 10 -1 10 -10 0
-8 6 -18 14 -21 8 -3 16 -14 19 -25 3 -10 12 -19 21 -19 9 0 16 -6 16 -14 0
-8 9 -18 20 -21 11 -4 27 -18 35 -33 7 -15 49 -64 92 -108 115 -120 223 -244
223 -256 0 -5 7 -8 15 -8 8 0 15 -5 15 -10 0 -6 16 -27 35 -47 19 -20 35 -40
35 -45 0 -4 8 -8 18 -9 10 0 12 -3 5 -6 -20 -7 -15 -33 6 -33 21 0 44 -31 54
-72 5 -17 17 -30 36 -36 16 -6 32 -20 36 -32 4 -11 24 -38 46 -60 21 -21 39
-43 39 -49 0 -6 5 -11 10 -11 18 0 48 -34 55 -63 7 -26 14 -31 45 -28 11 1 12
0 2 -7 -10 -6 -8 -13 8 -27 13 -12 18 -25 14 -38 -5 -15 -2 -18 13 -13 14 4
30 -4 54 -28 57 -57 122 -150 111 -160 -3 -3 3 -6 12 -6 11 0 22 -12 29 -30 6
-17 16 -30 21 -30 10 0 66 -59 66 -70 0 -4 19 -28 43 -54 l43 -46 717 0 717 0
0 2490 0 2490 -2500 0 -2500 0 0 -549z m2660 -909 c168 -174 248 -223 727
-437 134 -60 241 -110 240 -112 -2 -2 -24 5 -48 16 -590 258 -679 302 -811
407 -36 30 -92 83 -124 119 -95 108 -129 108 -280 2 -110 -77 -261 -154 -454
-232 -195 -79 -354 -159 -430 -216 -30 -23 -46 -32 -35 -19 50 58 211 146 442
241 223 92 315 139 457 233 120 80 133 86 180 86 51 0 51 0 136 -88z m-165 -2
c-4 -6 -28 -21 -54 -35 -96 -48 -141 -103 -141 -169 0 -53 40 -90 138 -131 95
-39 107 -47 129 -88 38 -75 -25 -158 -153 -201 -124 -41 -223 -56 -367 -56
-125 1 -258 17 -275 35 -4 4 2 5 13 2 41 -12 179 -27 247 -27 157 0 389 51
465 103 43 29 67 79 58 123 -7 40 -35 61 -136 99 -39 15 -79 40 -100 61 -29
30 -34 42 -33 80 1 66 42 117 134 170 87 49 83 47 75 34z m-1105 -533 c0 -2
-10 -12 -22 -23 l-23 -19 19 23 c18 21 26 27 26 19z m2535 -287 c-30 -15 -64
-52 -133 -145 -55 -74 -90 -130 -86 -138 60 -106 123 -192 149 -203 28 -12 25
-13 -50 -12 -44 0 -72 2 -62 5 9 2 17 12 17 22 0 18 -80 151 -91 151 -3 0 -28
-33 -54 -72 -100 -152 -150 -198 -215 -198 l-35 0 40 19 c49 23 63 38 164 179
l80 114 -59 91 c-38 60 -69 96 -87 104 -25 11 -19 12 52 12 59 0 75 -2 63 -10
-26 -15 -22 -31 21 -100 l39 -61 70 98 c94 133 129 163 187 164 30 0 30 0 -10
-20z m-1760 -15 c-22 -8 -51 -27 -65 -44 -14 -16 -68 -124 -120 -239 -52 -116
-97 -209 -99 -206 -2 2 -39 82 -80 176 -58 131 -82 176 -101 185 -23 11 -19
13 40 12 36 0 59 -3 53 -6 -7 -2 -13 -10 -13 -17 0 -22 107 -279 112 -270 3 5
36 81 73 169 37 88 78 175 92 194 29 37 73 60 118 60 29 0 28 -1 -10 -14z
m364 -97 c-1 -18 -3 -25 -6 -15 -4 14 -16 17 -69 17 l-64 0 0 -80 0 -80 83 0
c85 0 100 4 110 30 3 8 6 -7 6 -35 0 -39 -2 -46 -10 -32 -8 14 -25 17 -99 17
l-90 0 0 -75 c0 -69 2 -76 23 -85 16 -6 6 -9 -43 -9 -49 0 -59 3 -42 9 22 9
22 13 22 176 0 163 0 166 -22 172 -14 4 17 9 72 13 52 3 103 6 113 7 13 2 17
-5 16 -30z m441 25 c-27 -11 -30 -27 -30 -191 0 -159 0 -163 23 -172 16 -6 6
-9 -43 -9 -49 0 -59 3 -42 9 22 9 22 13 22 175 l0 165 -39 0 c-48 0 -76 -23
-61 -50 5 -10 15 -21 22 -23 8 -4 7 -6 -4 -6 -22 -1 -48 25 -48 48 0 28 28 45
84 52 66 8 135 9 116 2z m-253 -16 c-16 -11 -17 -31 -15 -187 l3 -174 90 -30
c74 -25 107 -30 186 -31 102 0 107 -8 25 -35 -58 -19 -125 -6 -234 43 -53 24
-110 48 -127 52 -20 5 -25 9 -15 13 27 9 30 25 30 177 0 152 -3 167 -30 178
-8 3 12 6 44 6 50 1 57 -1 43 -12z m608 -178 c7 -62 -5 -131 -23 -143 -4 -2
-7 73 -8 167 -1 165 -1 169 12 107 7 -36 16 -95 19 -131z m19 88 c36 -156 31
-294 -13 -349 -19 -23 -19 -23 -5 32 17 67 17 208 0 313 -7 42 -10 77 -6 77 3
0 14 -33 24 -73z m-692 -492 c0 -5 -5 -11 -11 -13 -6 -2 -11 4 -11 13 0 9 5
15 11 13 6 -2 11 -8 11 -13z m-282 -20 c0 -8 7 -15 15 -15 8 0 15 -4 15 -10 0
-5 -7 -10 -16 -10 -12 0 -14 -9 -12 -42 2 -25 8 -44 16 -44 25 -3 27 -5 13
-13 -28 -18 -51 6 -51 54 0 25 -5 46 -12 49 -10 5 -10 7 0 12 6 3 12 12 12 20
0 8 5 14 10 14 6 0 10 -7 10 -15z m1130 0 c0 -8 7 -15 15 -15 8 0 15 -4 15
-10 0 -5 -7 -10 -16 -10 -12 0 -14 -9 -12 -42 2 -28 7 -42 16 -40 6 1 12 -3
12 -9 0 -6 -10 -9 -22 -7 -19 2 -24 10 -26 48 -2 24 -9 48 -15 53 -9 7 -9 10
1 14 6 2 12 11 12 19 0 8 5 14 10 14 6 0 10 -7 10 -15z m-1370 -25 c0 -4 -9
-10 -20 -13 -16 -4 -20 -14 -20 -51 0 -34 -4 -46 -15 -46 -12 0 -15 13 -15 58
l0 58 35 1 c19 1 35 -3 35 -7z m140 -9 c20 -38 13 -51 -30 -51 -22 0 -40 -4
-40 -10 0 -14 31 -28 51 -23 11 3 19 1 19 -5 0 -16 -36 -21 -62 -8 -29 15 -37
75 -13 100 22 22 62 20 75 -3z m275 9 c3 -5 8 -32 12 -59 l5 -49 -36 -4 c-70
-8 -93 48 -28 67 42 12 44 40 2 32 -28 -6 -38 1 -23 16 10 11 61 8 68 -3z
m105 -50 c0 -33 -4 -60 -10 -60 -6 0 -10 27 -10 60 0 33 4 60 10 60 6 0 10
-27 10 -60z m170 40 c16 -30 13 -100 -5 -100 -11 0 -15 12 -15 50 0 50 -4 55
-34 44 -11 -4 -16 -19 -16 -50 0 -24 -4 -44 -10 -44 -6 0 -10 26 -10 58 l0 58
40 1 c30 2 42 -3 50 -17z m167 9 c7 -7 14 -6 18 1 10 17 44 11 55 -9 16 -31
13 -101 -5 -101 -11 0 -15 12 -15 51 0 43 -3 50 -17 47 -14 -2 -19 -15 -21
-51 -2 -33 -7 -47 -18 -47 -10 0 -14 13 -14 51 0 43 -3 50 -17 47 -14 -2 -19
-15 -21 -51 -2 -33 -7 -47 -18 -47 -10 0 -14 14 -14 58 l0 58 38 1 c20 1 42
-3 49 -8z m231 -1 c7 -7 12 -22 12 -34 0 -20 -6 -23 -42 -26 -40 -3 -41 -4
-24 -21 12 -12 25 -15 43 -11 18 5 24 3 19 -5 -11 -16 -57 -13 -78 6 -22 20
-23 51 -2 81 17 24 53 29 72 10z m172 -8 c16 -30 13 -100 -5 -100 -11 0 -15
12 -15 50 0 50 -4 55 -34 44 -11 -4 -16 -19 -16 -50 0 -24 -4 -44 -10 -44 -6
0 -10 26 -10 58 l0 58 40 1 c30 2 42 -3 50 -17z"/>
<path d="M2207 1954 c-15 -15 -6 -24 24 -24 20 0 29 4 27 13 -5 14 -40 21 -51
11z"/>
<path d="M2494 1905 c-16 -12 -17 -16 -5 -24 20 -13 41 -2 41 20 0 23 -10 24
-36 4z"/>
<path d="M3167 1954 c-14 -14 -6 -24 19 -24 16 0 24 5 22 13 -5 14 -31 21 -41
11z"/>
<path d="M1341 2541 c-11 -7 -9 -11 8 -20 12 -7 19 -16 16 -22 -4 -5 1 -9 9
-9 9 0 16 -5 16 -11 0 -12 83 -99 94 -99 3 0 6 38 6 85 l0 85 -67 0 c-38 0
-74 -4 -82 -9z"/>
</g>
</svg>
